<?xml version="1.0" standalone="no"?>
<!DOCTYPE svg PUBLIC "-//W3C//DTD SVG 20010904//EN"
 "http://www.w3.org/TR/2001/REC-SVG-20010904/DTD/svg10.dtd">
<svg version="1.0" xmlns="http://www.w3.org/2000/svg"
 width="982.000000pt" height="980.000000pt" viewBox="0 0 982.000000 980.000000"
 preserveAspectRatio="xMidYMid meet">

<g transform="translate(0.000000,980.000000) scale(0.100000,-0.100000)"
fill="#000000" stroke="none">
<path d="M4878 7084 c-16 -8 -40 -37 -54 -65 -46 -92 -56 -177 -55 -464 1
-143 4 -267 6 -276 3 -10 -3 -20 -17 -28 -22 -11 -22 -11 4 -6 30 6 49 -11 21
-18 -15 -4 -15 -5 -2 -6 12 -1 15 -8 11 -28 -3 -16 1 -30 10 -37 24 -18 68
-120 69 -162 1 -27 3 -32 6 -14 5 23 6 23 20 -10 8 -19 19 -47 23 -63 12 -37
-6 -25 -24 16 l-14 32 -1 -27 c-1 -14 5 -29 12 -32 10 -5 10 -7 0 -12 -18 -8
-16 -51 3 -58 9 -3 26 -6 39 -6 13 0 25 -5 27 -10 2 -6 13 -2 26 10 l22 21 0
-22 c0 -56 9 -3 19 114 11 112 10 129 -4 143 -8 8 -15 20 -15 25 0 16 19 10
29 -9 8 -15 33 -20 158 -31 81 -7 173 -16 203 -19 30 -4 93 -7 140 -6 47 0 88
-3 91 -8 7 -10 217 -31 245 -24 19 5 21 1 20 -27 -1 -43 18 -51 22 -9 3 27 7
32 20 27 9 -4 64 -11 122 -16 58 -5 113 -11 122 -13 16 -4 16 -1 -2 34 l-19
38 -143 26 c-149 28 -476 92 -516 102 -19 4 -23 11 -21 37 4 63 -28 108 -78
109 -52 2 -92 -34 -98 -87 -4 -38 -5 -40 -13 -28 -4 6 -48 19 -97 28 -140 26
-140 26 -138 66 24 323 28 538 13 620 -28 149 -107 220 -192 173z m405 -917
c4 -10 -3 -12 -24 -9 -16 2 -29 8 -29 13 0 14 47 10 53 -4z m6 -56 c11 -7 9
-10 -8 -16 -13 -4 -25 -4 -28 -1 -4 3 2 6 13 6 16 0 17 2 4 10 -8 5 -10 10 -5
10 6 0 16 -4 24 -9z m64 -18 c-7 -2 -19 -2 -25 0 -7 3 -2 5 12 5 14 0 19 -2
13 -5z m-18 -18 c6 -2 -25 -4 -68 -4 -43 -1 -76 3 -73 7 5 8 118 5 141 -3z"/>
<path d="M5630 6600 c8 -5 20 -10 25 -10 6 0 3 5 -5 10 -8 5 -19 10 -25 10 -5
0 -3 -5 5 -10z"/>
<path d="M5772 6536 c193 -97 377 -238 534 -406 371 -399 546 -927 491 -1480
-9 -91 -19 -177 -23 -191 -5 -22 -3 -26 18 -25 18 1 23 -5 25 -24 l2 -25 -7
24 c-7 23 -9 22 -21 -18 -7 -24 -10 -46 -7 -49 3 -3 6 2 6 11 0 10 4 17 9 17
5 0 5 -12 -1 -28 -9 -22 -16 -28 -34 -24 -19 3 -22 1 -17 -19 4 -15 3 -20 -6
-15 -6 4 -11 4 -10 -1 1 -4 -5 -24 -14 -43 -12 -27 -13 -38 -4 -49 9 -12 9
-13 0 -7 -8 4 -17 -2 -24 -17 -11 -25 -55 -42 -65 -26 -3 5 -11 9 -17 8 -7 0
-2 -7 11 -16 25 -18 29 -41 7 -49 -8 -4 -15 -13 -15 -21 0 -8 -8 -28 -17 -44
-9 -15 -15 -30 -12 -33 2 -2 40 -6 84 -9 44 -3 81 -6 83 -6 2 -1 1 -4 -1 -8
-3 -5 1 -13 8 -20 10 -10 14 -9 19 3 3 9 1 12 -4 9 -6 -3 -10 1 -10 10 0 9 4
14 9 11 28 -18 121 308 147 519 18 138 15 380 -6 520 -49 333 -214 711 -425
970 -186 229 -432 425 -691 551 -61 30 -115 54 -120 54 -5 0 39 -25 98 -54z
m995 -2248 c-3 -8 -6 -5 -6 6 -1 11 2 17 5 13 3 -3 4 -12 1 -19z"/>
<path d="M3890 6459 c-17 -13 -18 -17 -5 -10 33 17 51 31 40 31 -5 0 -21 -10
-35 -21z"/>
<path d="M3787 6395 c-37 -26 -52 -44 -19 -26 23 14 68 50 62 51 -3 0 -22 -11
-43 -25z"/>
<path d="M3724 6346 c-5 -6 -21 -19 -35 -29 -15 -11 -17 -14 -4 -8 30 14 61
39 55 44 -3 3 -10 0 -16 -7z"/>
<path d="M4382 6308 c-7 -7 -12 -27 -12 -45 0 -18 -5 -33 -11 -33 -5 0 -9 -10
-7 -22 2 -18 -3 -24 -27 -29 l-30 -7 34 -1 c33 -1 34 -2 15 -16 -16 -12 -16
-14 -3 -15 21 0 43 26 34 40 -3 5 1 10 10 10 9 0 14 4 10 10 -3 5 -12 7 -20 3
-8 -3 -15 0 -15 6 0 6 5 11 10 11 6 0 10 7 10 16 0 19 27 47 39 40 5 -3 8 -37
7 -76 -1 -46 3 -70 10 -70 12 0 24 54 24 113 0 20 5 37 10 37 6 0 10 -6 10
-12 0 -9 3 -8 10 2 20 33 -78 68 -108 38z"/>
<path d="M3620 6259 c0 -5 5 -7 10 -4 6 3 10 8 10 11 0 2 -4 4 -10 4 -5 0 -10
-5 -10 -11z"/>
<path d="M4485 6240 c-6 -9 -4 -11 5 -5 10 6 12 4 7 -9 -4 -9 -3 -15 2 -11 5
3 12 -1 14 -7 3 -7 6 -8 6 -2 1 5 -5 18 -12 29 -11 14 -16 15 -22 5z"/>
<path d="M4658 6233 c6 -2 18 -2 25 0 6 3 1 5 -13 5 -14 0 -19 -2 -12 -5z"/>
<path d="M3561 6216 c-9 -11 -9 -16 0 -22 7 -4 9 -3 5 4 -3 6 2 15 11 21 10 6
13 11 7 11 -6 0 -17 -6 -23 -14z"/>
<path d="M4578 6213 c6 -2 18 -2 25 0 6 3 1 5 -13 5 -14 0 -19 -2 -12 -5z"/>
<path d="M4655 6210 c3 -5 11 -10 16 -10 6 0 7 5 4 10 -3 6 -11 10 -16 10 -6
0 -7 -4 -4 -10z"/>
<path d="M4583 6193 c-16 -6 -17 -33 -3 -33 11 0 26 28 19 34 -2 2 -10 1 -16
-1z"/>
<path d="M3525 6163 l-17 -28 23 22 c12 12 20 25 17 28 -3 3 -13 -7 -23 -22z"/>
<path d="M4270 6163 c8 -3 18 -10 21 -16 4 -5 13 -6 20 -2 9 6 8 10 -7 16 -10
4 -26 8 -34 8 -13 -1 -13 -1 0 -6z"/>
<path d="M4516 6151 c-4 -5 3 -7 14 -4 23 6 26 13 6 13 -8 0 -17 -4 -20 -9z"/>
<path d="M4620 6149 c0 -5 5 -7 10 -4 6 3 10 8 10 11 0 2 -4 4 -10 4 -5 0 -10
-5 -10 -11z"/>
<path d="M4370 6133 c-14 -7 -18 -13 -10 -13 17 0 47 17 40 23 -3 2 -16 -2
-30 -10z"/>
<path d="M3485 6120 c-4 -6 -11 -8 -16 -5 -5 4 -9 -1 -9 -10 0 -10 -5 -13 -12
-9 -7 5 -8 3 -3 -5 5 -9 13 -7 31 10 13 12 24 24 24 26 0 7 -9 3 -15 -7z"/>
<path d="M4305 6120 c-3 -6 1 -7 9 -4 18 7 21 14 7 14 -6 0 -13 -4 -16 -10z"/>
<path d="M4553 6113 c9 -2 25 -2 35 0 9 3 1 5 -18 5 -19 0 -27 -2 -17 -5z"/>
<path d="M4769 6103 c-13 -16 -12 -17 4 -4 9 7 17 15 17 17 0 8 -8 3 -21 -13z"/>
<path d="M4320 6100 c0 -5 9 -10 21 -10 11 0 17 5 14 10 -3 6 -13 10 -21 10
-8 0 -14 -4 -14 -10z"/>
<path d="M4488 6103 c7 -3 16 -2 19 1 4 3 -2 6 -13 5 -11 0 -14 -3 -6 -6z"/>
<path d="M4380 6088 c0 -10 139 -9 162 0 9 4 -23 7 -72 7 -50 0 -90 -3 -90 -7z"/>
<path d="M4578 6078 c9 -9 15 -9 24 0 9 9 7 12 -12 12 -19 0 -21 -3 -12 -12z"/>
<path d="M3362 6011 c-34 -40 -59 -77 -56 -83 4 -7 2 -8 -4 -4 -15 9 -125
-159 -197 -301 -59 -116 -62 -128 -41 -140 7 -4 17 -21 22 -36 9 -26 12 -22
48 70 45 116 136 300 179 363 18 25 30 55 29 70 -1 17 1 21 7 12 6 -11 10 -10
16 5 5 10 7 25 6 32 -2 12 0 12 11 3 11 -8 17 -6 28 11 12 20 12 21 -4 8 -9
-8 -19 -11 -22 -8 -9 9 24 39 35 33 5 -3 15 2 22 11 8 9 9 14 2 10 -6 -4 -13
-2 -15 4 -2 7 -32 -21 -66 -60z m8 -25 c0 -3 -4 -8 -10 -11 -5 -3 -10 -1 -10
4 0 6 5 11 10 11 6 0 10 -2 10 -4z"/>
<path d="M3704 6071 c-38 -10 -54 -19 -54 -33 0 -6 7 -5 18 4 22 19 93 31 89
15 -1 -6 6 -13 16 -15 26 -5 21 25 -5 32 -13 3 -25 5 -28 5 -3 -1 -19 -4 -36
-8z"/>
<path d="M4328 6073 c6 -2 18 -2 25 0 6 3 1 5 -13 5 -14 0 -19 -2 -12 -5z"/>
<path d="M4360 6060 c-41 -6 -42 -7 -10 -8 19 0 55 3 80 7 40 8 41 8 10 8 -19
0 -55 -3 -80 -7z"/>
<path d="M4498 6063 c12 -2 32 -2 45 0 12 2 2 4 -23 4 -25 0 -35 -2 -22 -4z"/>
<path d="M3708 6043 c6 -2 18 -2 25 0 6 3 1 5 -13 5 -14 0 -19 -2 -12 -5z"/>
<path d="M3670 6025 c-11 -13 -6 -15 36 -13 44 1 45 2 11 5 -20 2 -35 8 -32
14 10 14 -1 11 -15 -6z"/>
<path d="M3768 6023 c6 -2 18 -2 25 0 6 3 1 5 -13 5 -14 0 -19 -2 -12 -5z"/>
<path d="M5582 5998 c2 -13 10 -23 18 -23 8 0 16 10 18 23 3 17 -2 22 -18 22
-16 0 -21 -5 -18 -22z"/>
<path d="M4801 5534 c0 -11 3 -14 6 -6 3 7 2 16 -1 19 -3 4 -6 -2 -5 -13z"/>
<path d="M4660 5410 c-18 -12 -2 -12 25 0 13 6 15 9 5 9 -8 0 -22 -4 -30 -9z"/>
<path d="M4688 5383 c7 -3 16 -2 19 1 4 3 -2 6 -13 5 -11 0 -14 -3 -6 -6z"/>
<path d="M4545 5360 c-3 -5 -1 -10 4 -10 6 0 11 5 11 10 0 6 -2 10 -4 10 -3 0
-8 -4 -11 -10z"/>
<path d="M4627 5356 c-4 -10 -28 -14 -88 -15 -136 -3 -103 -11 43 -11 127 0
136 1 141 20 4 16 0 20 -20 20 -13 0 -21 -4 -18 -10 3 -5 -3 -10 -15 -10 -12
0 -18 5 -15 10 3 6 0 10 -8 10 -8 0 -17 -6 -20 -14z"/>
<path d="M5268 5363 c7 -3 16 -2 19 1 4 3 -2 6 -13 5 -11 0 -14 -3 -6 -6z"/>
<path d="M4488 5353 c7 -3 16 -2 19 1 4 3 -2 6 -13 5 -11 0 -14 -3 -6 -6z"/>
<path d="M5258 5313 c7 -3 16 -2 19 1 4 3 -2 6 -13 5 -11 0 -14 -3 -6 -6z"/>
<path d="M3015 5131 c-4 -17 -11 -31 -16 -31 -5 0 -9 -9 -9 -20 0 -11 -5 -20
-10 -20 -12 0 -27 -33 -46 -100 -11 -41 -13 -42 -14 -15 -2 24 -4 20 -12 -19
-6 -34 -6 -52 2 -60 8 -8 10 -4 5 17 -4 16 -3 27 3 27 14 0 23 -44 17 -77 -4
-23 -4 -24 4 -8 10 23 17 11 24 -40 3 -24 4 -21 6 12 0 23 -4 43 -9 45 -6 2
-12 26 -14 53 -2 28 -2 40 1 28 2 -13 8 -23 12 -23 13 0 31 24 33 45 1 11 4
-9 8 -45 l7 -65 2 85 c1 47 6 118 11 159 10 76 7 106 -5 52z m-26 -151 c0 -9
-4 -8 -9 5 -5 11 -9 27 -9 35 0 9 4 8 9 -5 5 -11 9 -27 9 -35z m-12 -52 c-3
-8 -6 -5 -6 6 -1 11 2 17 5 13 3 -3 4 -12 1 -19z"/>
<path d="M5055 4991 c-2 -5 8 -11 23 -14 35 -7 38 -3 7 11 -13 6 -27 7 -30 3z"/>
<path d="M4500 4959 c0 -5 5 -7 10 -4 6 3 10 8 10 11 0 2 -4 4 -10 4 -5 0 -10
-5 -10 -11z"/>
<path d="M5130 4960 c8 -5 20 -10 25 -10 6 0 3 5 -5 10 -8 5 -19 10 -25 10 -5
0 -3 -5 5 -10z"/>
<path d="M4215 4935 c-27 -7 -51 -18 -53 -24 -2 -6 -8 -9 -12 -6 -12 8 -78
-52 -96 -86 -10 -19 -22 -29 -38 -29 -13 0 -39 -11 -58 -23 -27 -19 -39 -22
-59 -15 -40 16 -134 3 -183 -26 -50 -29 -97 -79 -117 -125 -12 -27 -19 -31
-54 -31 -51 0 -143 -24 -195 -50 -21 -11 -65 -44 -98 -75 -33 -30 -65 -55 -71
-55 -6 0 8 -30 31 -67 23 -38 60 -102 82 -143 23 -41 57 -103 76 -138 l35 -62
265 0 265 0 74 -128 c41 -70 92 -158 114 -197 22 -38 56 -97 76 -130 20 -33
43 -71 50 -85 8 -14 44 -77 81 -140 36 -63 69 -122 73 -130 7 -16 20 -37 50
-82 19 -30 23 -18 -49 -143 -16 -27 -38 -67 -49 -87 -11 -21 -23 -38 -27 -38
-5 0 -8 -7 -8 -15 0 -8 16 -18 38 -24 163 -43 235 -56 363 -65 l67 -6 38 78
c21 42 53 100 71 129 18 29 33 57 33 63 0 6 7 13 15 16 8 4 15 12 15 20 0 8 5
22 11 32 12 19 -3 72 -21 72 -5 0 -16 13 -22 29 -11 26 -15 28 -30 17 -13 -10
-15 -20 -8 -49 4 -21 4 -37 -1 -37 -5 0 -9 7 -9 15 0 11 -11 15 -40 15 -27 0
-40 -4 -40 -14 0 -16 -50 -26 -130 -26 -30 0 -73 -5 -95 -12 l-40 -12 53 -9
c28 -4 52 -12 52 -17 0 -10 -75 -22 -103 -17 -21 4 -38 27 -31 39 3 4 -2 8
-10 8 -9 0 -16 7 -16 15 0 8 7 15 16 15 9 0 14 6 11 13 -2 7 4 28 14 47 10 19
23 45 28 58 6 12 15 22 20 22 5 0 11 8 14 18 3 9 19 40 36 67 34 57 51 88 108
195 23 41 69 124 104 183 35 60 71 120 80 135 22 37 66 116 102 182 16 30 40
74 53 96 12 23 50 86 83 142 34 55 61 105 61 110 0 6 3 12 8 14 4 2 21 31 38
65 26 51 69 126 144 253 49 82 73 126 71 129 -2 2 3 7 10 12 10 6 10 11 -1 24
-28 34 -71 47 -159 47 -47 1 -94 5 -105 10 -13 7 -16 7 -12 -1 8 -12 -140 -11
-159 1 -20 12 -67 -5 -77 -28 -6 -13 -17 -24 -24 -24 -8 0 -11 -6 -8 -15 4 -8
1 -15 -5 -15 -6 0 -11 -7 -11 -16 0 -9 -9 -24 -19 -33 -11 -9 -21 -33 -23 -51
-2 -30 -7 -35 -30 -38 -20 -2 -28 -9 -28 -22 0 -10 -4 -22 -10 -25 -5 -3 -10
-11 -10 -16 0 -6 5 -7 11 -3 7 4 10 2 8 -5 -3 -7 -8 -12 -12 -11 -15 2 -37
-29 -37 -54 0 -19 -5 -24 -20 -23 -12 1 -20 8 -19 17 1 8 1 26 0 40 -1 20 -3
22 -11 10 -6 -10 -10 -11 -10 -2 0 6 -5 12 -10 12 -12 0 -1 -53 12 -58 4 -2 8
-12 8 -23 0 -10 5 -19 10 -19 6 0 10 5 10 11 0 5 5 7 11 3 7 -4 6 -11 -5 -22
-14 -15 -17 -14 -31 3 -8 11 -25 39 -37 63 -12 23 -26 42 -31 42 -5 0 -7 7 -4
15 4 8 1 17 -4 21 -6 3 -9 14 -6 24 3 11 -1 17 -12 16 -10 -1 -16 8 -17 23 -1
14 -13 34 -28 46 -14 11 -26 25 -26 29 0 5 6 3 14 -4 13 -10 13 -8 3 13 -7 15
-17 23 -26 19 -10 -4 -13 0 -9 15 4 15 -4 29 -28 49 -33 28 -41 50 -26 70 4 5
-2 -1 -13 -13 l-21 -23 -39 20 c-26 14 -50 19 -70 16 -22 -4 -26 -3 -15 4 22
15 -44 12 -105 -5z m1042 -81 c-3 -3 -12 -4 -19 -1 -8 3 -5 6 6 6 11 1 17 -2
13 -5z m208 -12 c-3 -3 -11 0 -18 7 -9 10 -8 11 6 5 10 -3 15 -9 12 -12z
m-318 2 c-3 -3 -12 -4 -19 -1 -8 3 -5 6 6 6 11 1 17 -2 13 -5z m-587 -1901 c0
-32 -5 -28 -14 10 -4 19 -3 26 4 22 5 -3 10 -18 10 -32z m77 -65 c-3 -8 -6 -5
-6 6 -1 11 2 17 5 13 3 -3 4 -12 1 -19z m50 -134 c-3 -3 -12 -4 -19 -1 -8 3
-5 6 6 6 11 1 17 -2 13 -5z"/>
<path d="M4540 4930 c-9 -6 -10 -10 -3 -10 6 0 15 5 18 10 8 12 4 12 -15 0z"/>
<path d="M5118 4933 c7 -3 16 -2 19 1 4 3 -2 6 -13 5 -11 0 -14 -3 -6 -6z"/>
<path d="M5160 4930 c-9 -6 -10 -10 -3 -10 6 0 15 5 18 10 8 12 4 12 -15 0z"/>
<path d="M5308 4903 c7 -3 16 -2 19 1 4 3 -2 6 -13 5 -11 0 -14 -3 -6 -6z"/>
<path d="M4528 4878 c12 -6 22 -17 22 -25 0 -7 10 -13 23 -13 20 1 20 2 5 11
-10 5 -18 17 -18 24 0 10 -10 15 -27 14 -28 0 -28 -1 -5 -11z"/>
<path d="M2981 4854 c0 -11 3 -14 6 -6 3 7 2 16 -1 19 -3 4 -6 -2 -5 -13z"/>
<path d="M4710 4850 l-115 -5 145 -5 c155 -5 205 -2 160 11 -14 4 -36 7 -50 6
-14 -1 -77 -4 -140 -7z"/>
<path d="M2999 4793 c-2 -21 -1 -54 2 -73 5 -25 7 -15 8 38 1 77 -5 96 -10 35z"/>
<path d="M4620 4740 c6 -11 13 -20 15 -20 3 0 5 9 5 20 0 11 -7 20 -15 20 -13
0 -14 -4 -5 -20z"/>
<path d="M5830 4716 c0 -2 8 -10 18 -17 15 -13 16 -12 3 4 -13 16 -21 21 -21
13z"/>
<path d="M6761 4404 c0 -11 3 -14 6 -6 3 7 2 16 -1 19 -3 4 -6 -2 -5 -13z"/>
<path d="M6750 4356 c0 -8 5 -18 10 -21 6 -3 10 1 10 9 0 8 -4 18 -10 21 -5 3
-10 -1 -10 -9z"/>
<path d="M6358 4333 c7 -3 16 -2 19 1 4 3 -2 6 -13 5 -11 0 -14 -3 -6 -6z"/>
<path d="M6370 4310 l-35 -7 32 -2 c17 0 35 4 38 9 3 6 5 9 3 9 -2 -1 -19 -5
-38 -9z"/>
<path d="M6435 4303 c11 -3 28 -12 38 -21 10 -9 17 -11 17 -4 0 20 22 13 27
-8 3 -11 11 -20 18 -20 7 0 20 -10 29 -22 14 -20 15 -20 9 -3 -6 20 -6 20 15
2 11 -11 19 -24 16 -31 -4 -10 9 -20 59 -44 4 -2 7 1 7 6 0 6 -11 13 -25 16
-14 4 -25 12 -25 19 0 16 -52 67 -68 67 -7 0 -15 6 -18 14 -7 18 -29 27 -79
31 -22 2 -31 1 -20 -2z"/>
<path d="M6480 4253 c0 -16 35 -43 56 -42 14 0 15 2 4 6 -8 3 -25 15 -37 26
-13 11 -23 16 -23 10z"/>
<path d="M6560 4100 c0 -11 5 -20 10 -20 6 0 10 9 10 20 0 11 -4 20 -10 20 -5
0 -10 -9 -10 -20z"/>
<path d="M6596 3895 c-3 -8 0 -15 6 -15 7 0 7 -4 -1 -14 -9 -11 -9 -15 0 -18
19 -6 22 -48 3 -48 -12 0 -14 -3 -6 -13 15 -18 22 -87 11 -116 -13 -34 -5 -36
12 -3 8 15 20 31 26 35 10 6 10 12 1 27 -9 14 -9 22 3 36 11 13 11 18 1 21 -7
3 -17 14 -23 25 -7 13 -7 18 -1 14 16 -9 23 10 16 39 -8 32 -39 52 -48 30z"/>
<path d="M6724 3894 c3 -8 6 -18 6 -20 0 -3 5 -2 10 1 15 9 12 22 -6 29 -12 5
-15 2 -10 -10z"/>
<path d="M6690 3865 c-11 -13 -10 -14 4 -9 9 3 16 10 16 15 0 13 -6 11 -20 -6z"/>
<path d="M6691 3821 c-16 -16 -21 -17 -21 -6 0 18 -16 20 -22 3 -2 -7 6 -23
19 -35 13 -12 23 -19 24 -15 3 29 10 46 21 53 7 4 10 11 6 14 -3 4 -16 -3 -27
-14z"/>
<path d="M6656 3755 c-9 -26 -7 -32 5 -12 6 10 9 21 6 23 -2 3 -7 -2 -11 -11z"/>
<path d="M6563 3745 c0 -8 4 -12 9 -9 5 3 6 10 3 15 -9 13 -12 11 -12 -6z"/>
<path d="M6587 3708 c-4 -16 -12 -28 -17 -28 -6 0 -10 -9 -10 -20 0 -15 -7
-20 -25 -20 -23 0 -25 -4 -26 -42 -1 -24 0 -50 1 -57 2 -13 0 -13 -16 0 -16
13 -16 12 -6 -8 15 -27 34 -41 25 -17 -5 12 -3 15 6 9 10 -6 11 -3 2 14 -12
22 -2 28 16 10 8 -8 13 -8 17 0 4 6 4 11 0 11 -4 0 5 14 21 30 23 24 26 33 16
43 -10 10 -11 8 -5 -8 6 -16 4 -18 -6 -8 -11 10 -10 18 4 46 10 18 16 42 14
52 -3 17 -5 15 -11 -7z"/>
<path d="M6430 3540 c0 -5 7 -10 16 -10 8 0 12 5 9 10 -3 6 -10 10 -16 10 -5
0 -9 -4 -9 -10z"/>
<path d="M6476 3468 c3 -5 10 -6 15 -3 13 9 11 12 -6 12 -8 0 -12 -4 -9 -9z"/>
<path d="M6451 3437 c-13 -21 -12 -21 5 -5 10 10 16 20 13 22 -3 3 -11 -5 -18
-17z"/>
</g>
</svg>
